<?xml version="1.0" standalone="no"?>
<!DOCTYPE svg PUBLIC "-//W3C//DTD SVG 20010904//EN"
 "http://www.w3.org/TR/2001/REC-SVG-20010904/DTD/svg10.dtd">
<svg version="1.0" xmlns="http://www.w3.org/2000/svg"
 width="133.000000pt" height="300.000000pt" viewBox="0 0 133.000000 300.000000"
 preserveAspectRatio="xMidYMid meet">
<metadata>
Created by potrace 1.10, written by Peter Selinger 2001-2011
</metadata>
<g transform="translate(0.000000,300.000000) scale(0.100000,-0.100000)"
fill="#000000" stroke="none">
<path d="M2 1498 l3 -1503 2 1498 3 1497 655 0 655 0 3 -1497 2 -1498 3 1503
2 1502 -665 0 -665 0 2 -1502z"/>
<path d="M477 2973 c-11 -3 -28 -14 -39 -25 -11 -11 -32 -24 -46 -29 -22 -8
-35 -28 -67 -102 -21 -51 -52 -112 -67 -137 -15 -25 -43 -101 -61 -170 -19
-69 -37 -132 -41 -140 -4 -11 3 -18 29 -26 38 -12 47 -7 59 34 13 42 23 22 29
-60 4 -46 18 -121 33 -168 35 -111 128 -259 150 -237 2 2 -21 41 -51 87 -30
46 -61 107 -69 135 -27 89 -43 164 -34 159 4 -3 8 -1 8 5 0 5 -5 13 -11 17 -7
4 -9 22 -4 50 4 30 3 44 -5 44 -6 0 -8 5 -5 10 4 6 12 7 18 4 7 -4 9 -4 5 1
-4 4 -3 14 4 22 14 18 3 29 -15 15 -8 -7 -17 -8 -22 -4 -4 4 -4 -3 -1 -15 6
-18 2 -25 -17 -32 -13 -5 -27 -17 -30 -25 -7 -19 -37 -22 -37 -3 0 13 17 83
27 107 3 8 8 31 10 50 4 33 23 68 23 43 0 -7 9 -15 20 -18 11 -4 21 -16 21
-28 1 -17 2 -18 6 -4 7 25 39 23 36 -3 -1 -8 4 -2 11 14 9 21 22 31 41 33 16
2 36 8 46 14 29 15 32 -7 4 -29 -14 -11 -25 -27 -25 -36 0 -10 -9 -16 -22 -17
-17 -1 -19 -2 -6 -6 14 -4 16 -8 8 -24 -6 -11 -8 -24 -5 -29 3 -6 -2 -10 -12
-11 -10 0 -13 -3 -5 -6 7 -3 12 -24 12 -56 0 -29 5 -59 10 -67 7 -11 4 -19
-11 -31 -19 -14 -20 -17 -5 -22 10 -4 14 -3 11 2 -11 19 107 44 180 37 41 -3
86 -1 108 6 43 13 137 -1 189 -28 15 -8 28 -11 28 -6 0 5 -11 14 -25 20 -28
13 -31 24 -12 44 8 7 16 31 20 52 6 40 13 53 22 44 4 -3 9 -57 12 -119 4 -89
2 -130 -12 -184 -20 -85 -49 -151 -71 -163 -9 -5 -15 -12 -15 -15 3 -21 0 -27
-10 -21 -7 4 -9 0 -5 -13 5 -16 -4 -24 -50 -47 -56 -28 -105 -32 -133 -12 -11
8 -13 8 -7 -1 5 -9 0 -13 -13 -13 -29 0 -127 38 -141 55 -7 8 -15 15 -19 15
-10 0 -31 -52 -31 -77 0 -13 -9 -36 -20 -51 -11 -15 -27 -56 -36 -92 -19 -75
-33 -105 -110 -231 -30 -50 -54 -92 -52 -94 2 -1 13 -8 25 -14 15 -7 23 -21
23 -36 0 -34 -33 -33 -85 2 l-40 26 24 -26 c13 -14 36 -29 52 -32 23 -5 29
-12 30 -33 l2 -27 4 25 c3 14 9 29 14 34 13 14 11 50 -2 63 -9 9 2 34 41 98
30 47 55 100 57 117 2 17 9 38 16 46 6 8 17 41 24 74 6 32 21 71 32 87 20 27
29 55 30 93 1 15 8 15 66 -7 94 -36 181 -34 256 4 l57 29 25 -24 c27 -25 80
-121 91 -168 4 -15 14 -35 21 -43 8 -8 15 -24 15 -36 0 -12 8 -34 18 -48 28
-42 154 -189 162 -189 27 0 10 38 -47 106 -87 104 -128 168 -149 229 -25 74
-74 156 -105 174 l-27 15 27 36 c40 52 67 115 87 205 15 71 16 95 5 220 -7 77
-14 154 -17 172 -3 23 0 35 13 43 17 11 17 11 -1 6 -10 -4 -48 3 -85 15 -138
44 -391 36 -518 -18 -45 -18 -55 -9 -51 53 4 57 11 62 135 95 105 28 276 30
391 4 89 -19 128 -42 135 -78 l4 -22 2 23 c0 12 -10 31 -24 44 -14 12 -25 26
-25 32 0 6 -11 34 -24 61 -45 96 -164 186 -246 184 -34 0 -34 -1 14 -15 89
-28 170 -91 198 -156 7 -15 16 -28 20 -28 5 0 8 -7 8 -16 0 -13 -6 -15 -27
-10 -145 31 -292 31 -440 -3 -46 -10 -81 -16 -79 -12 2 3 19 41 39 84 20 42
41 77 46 77 5 0 23 11 39 25 16 14 56 31 88 39 l59 14 -45 0 c-25 0 -53 -2
-63 -5z m227 -372 c11 -1 -37 -47 -56 -53 -7 -3 -23 6 -36 19 -12 13 -27 23
-32 23 -6 0 -10 5 -10 11 0 9 28 9 134 0z m-116 -46 c16 -13 35 -39 43 -56
l13 -32 18 42 c23 55 73 79 130 62 68 -21 83 -71 52 -186 -18 -70 -25 -79 -53
-70 l-21 6 23 30 c45 61 19 188 -39 197 -25 4 -63 -36 -66 -68 -2 -20 2 -26
22 -28 42 -6 47 -22 7 -22 -34 0 -37 -2 -37 -29 0 -15 9 -40 21 -55 l20 -26
-38 -2 c-21 -1 -63 -2 -95 -3 l-56 -1 23 28 c50 59 40 166 -17 198 -26 14 -29
14 -52 -10 -14 -14 -28 -37 -31 -51 -6 -23 -2 -26 32 -36 l38 -10 -36 -2 c-20
0 -38 -4 -41 -7 -10 -10 10 -66 32 -89 l21 -22 -43 -6 c-23 -3 -44 -5 -45 -3
-11 11 -13 103 -3 149 23 112 108 161 178 102z m303 -2 c0 -5 3 -20 5 -35 3
-17 0 -28 -6 -28 -6 0 -10 10 -8 23 2 12 -4 27 -12 34 -13 11 -13 12 3 13 9 0
17 -3 18 -7z m-340 -66 c6 -50 -4 -124 -19 -140 -16 -18 -17 -18 -34 3 -25 31
-23 43 12 58 38 17 38 33 -1 56 -29 17 -30 19 -13 37 13 14 21 16 35 8 11 -5
20 -15 20 -22z m232 3 c8 -32 -3 -114 -20 -139 l-16 -25 -19 24 c-23 29 -20
54 9 58 12 2 24 10 27 17 5 15 -18 45 -35 45 -16 0 -10 28 8 38 22 13 40 5 46
-18z m117 -32 c0 -18 -2 -20 -9 -8 -6 8 -7 18 -5 22 9 14 14 9 14 -14z"/>
<path d="M283 2495 c-3 -9 -3 -18 -1 -21 3 -3 8 4 11 16 6 23 -1 27 -10 5z"/>
<path d="M59 2331 c-16 -16 -29 -35 -29 -43 0 -7 9 0 20 17 11 16 34 35 52 42
28 10 29 12 10 12 -13 1 -36 -12 -53 -28z"/>
<path d="M228 2270 c3 -42 0 -50 -23 -69 -48 -37 -126 -24 -158 27 -9 15 -17
21 -17 14 0 -8 13 -27 29 -43 24 -24 38 -29 77 -29 66 0 104 35 104 96 0 24
-3 45 -7 47 -5 3 -6 -16 -5 -43z"/>
<path d="M325 2280 c3 -5 11 -10 16 -10 6 0 7 5 4 10 -3 6 -11 10 -16 10 -6 0
-7 -4 -4 -10z"/>
<path d="M801 2242 c-1 -27 -7 -35 -34 -47 -91 -38 -263 -54 -320 -30 -15 6
-14 1 7 -29 14 -21 28 -46 31 -57 5 -15 11 -18 28 -12 12 4 68 8 123 8 l102 0
17 46 c9 26 22 55 30 65 14 18 15 18 30 -3 9 -13 21 -23 27 -23 6 0 3 9 -7 20
-10 11 -21 37 -25 58 l-8 37 -1 -33z m-48 -89 c-18 -51 -27 -55 -119 -55 -49
0 -98 -4 -111 -9 -17 -6 -23 -4 -28 12 -9 27 -3 32 47 35 24 1 66 5 93 9 28 4
60 8 72 9 13 2 26 6 30 9 13 13 22 7 16 -10z"/>
<path d="M402 2193 c1 -15 -1 -39 -5 -53 -8 -24 -7 -24 7 -6 18 22 21 72 6 81
-5 3 -9 -6 -8 -22z"/>
<path d="M460 2037 c0 -20 4 -37 10 -37 5 0 7 14 3 33 -8 45 -13 47 -13 4z"/>
<path d="M475 1980 c3 -5 8 -10 11 -10 2 0 4 5 4 10 0 6 -5 10 -11 10 -5 0 -7
-4 -4 -10z"/>
<path d="M490 1954 c0 -6 7 -19 16 -30 14 -18 14 -18 3 6 -14 31 -19 36 -19
24z"/>
<path d="M550 1886 c0 -3 9 -10 20 -16 11 -6 20 -8 20 -6 0 3 -9 10 -20 16
-11 6 -20 8 -20 6z"/>
<path d="M500 1795 c-7 -9 -11 -17 -9 -20 3 -2 10 5 17 15 14 24 10 26 -8 5z"/>
<path d="M482 1735 c0 -16 2 -22 5 -12 2 9 2 23 0 30 -3 6 -5 -1 -5 -18z"/>
<path d="M507 1640 c4 -14 7 -38 7 -55 -1 -29 -1 -29 9 -7 8 17 6 30 -6 55
-13 23 -15 25 -10 7z"/>
<path d="M949 1575 c-1 -5 -3 -39 -4 -75 -2 -70 -12 -170 -20 -210 -3 -14 -8
-41 -12 -60 -4 -19 -6 -39 -4 -44 1 -6 -5 -29 -14 -53 -12 -32 -15 -54 -9 -86
5 -23 7 -52 6 -64 -2 -13 4 -47 13 -76 11 -37 15 -86 13 -160 -2 -59 0 -107 3
-107 8 0 1 -89 -12 -140 -14 -55 -90 -234 -101 -238 -4 -2 -6 -8 -3 -12 3 -5
0 -26 -7 -48 -9 -29 -16 -38 -29 -35 -9 3 -20 -1 -25 -8 -5 -9 -2 -11 9 -6 10
3 17 3 17 -2 0 -14 -26 -32 -34 -23 -4 4 -7 2 -6 -3 5 -21 -1 -33 -31 -64 -20
-21 -36 -30 -48 -26 -14 4 -81 111 -82 130 0 3 -1 10 -3 17 -2 7 -13 47 -24
88 -12 41 -23 98 -26 125 -2 28 -20 86 -39 130 -58 135 -60 169 -27 335 5 25
11 66 14 93 3 26 7 51 10 55 3 5 -17 54 -44 109 -58 122 -77 207 -84 373 -1
14 -5 23 -11 20 -14 -7 -8 -160 10 -235 7 -34 34 -103 59 -154 l44 -93 -13
-96 c-8 -54 -19 -121 -25 -150 -20 -89 -6 -159 56 -297 13 -27 26 -79 30 -115
4 -36 15 -89 25 -119 11 -30 19 -61 19 -69 0 -28 62 -143 85 -158 13 -9 34
-14 46 -12 27 4 134 130 144 168 3 14 30 86 60 160 30 75 58 158 63 185 7 41
8 350 1 350 -4 0 -11 44 -16 105 -3 36 -10 71 -15 78 -8 8 -6 25 5 55 14 38
24 94 47 257 12 78 11 182 0 200 -5 8 -10 11 -11 5z"/>
<path d="M491 1519 c-6 -18 -11 -39 -10 -48 0 -9 7 4 14 29 16 51 13 67 -4 19z"/>
<path d="M467 1430 c-3 -11 -1 -20 4 -20 5 0 9 9 9 20 0 11 -2 20 -4 20 -2 0
-6 -9 -9 -20z"/>
<path d="M1188 1439 c-10 -5 -18 -15 -18 -21 0 -6 9 -3 20 7 48 43 70 -30 25
-83 -52 -61 -124 -66 -96 -6 6 15 10 28 8 31 -2 2 -10 -11 -17 -28 -12 -29
-12 -33 8 -49 11 -10 24 -30 28 -46 14 -59 44 -104 69 -104 6 1 2 5 -7 10 -36
22 -75 140 -45 140 26 0 116 97 101 109 -5 3 -14 15 -20 26 -13 24 -32 29 -56
14z"/>
<path d="M35 1380 c-3 -6 1 -7 10 -4 8 4 26 -1 40 -10 30 -20 35 -20 35 0 0
12 7 15 25 12 13 -3 22 -1 19 3 -7 13 -38 11 -51 -2 -8 -8 -17 -8 -31 0 -26
14 -39 14 -47 1z"/>
<path d="M1285 1380 c3 -5 8 -10 11 -10 2 0 4 5 4 10 0 6 -5 10 -11 10 -5 0
-7 -4 -4 -10z"/>
<path d="M462 1320 c0 -19 2 -27 5 -17 2 9 2 25 0 35 -3 9 -5 1 -5 -18z"/>
<path d="M28 1283 c3 -18 7 -21 13 -11 12 18 11 25 -4 31 -10 4 -13 -2 -9 -20z"/>
<path d="M1285 1280 c3 -5 8 -10 11 -10 2 0 4 5 4 10 0 6 -5 10 -11 10 -5 0
-7 -4 -4 -10z"/>
<path d="M461 1254 c0 -11 3 -14 6 -6 3 7 2 16 -1 19 -3 4 -6 -2 -5 -13z"/>
<path d="M471 1214 c0 -11 3 -14 6 -6 3 7 2 16 -1 19 -3 4 -6 -2 -5 -13z"/>
<path d="M200 1202 c0 -24 -46 -82 -65 -82 -8 0 -16 -4 -19 -9 -12 -19 34 2
59 27 26 26 42 68 31 79 -3 4 -6 -3 -6 -15z"/>
<path d="M1300 1201 c0 -6 -11 -23 -25 -36 -23 -24 -23 -33 1 -17 16 10 37 53
30 60 -3 3 -6 0 -6 -7z"/>
<path d="M29 1153 c12 -24 41 -43 63 -43 7 0 4 6 -7 12 -11 6 -31 20 -44 32
l-24 21 12 -22z"/>
<path d="M490 1160 c0 -19 50 -94 57 -86 4 3 -1 14 -10 23 -8 10 -23 32 -31
48 -9 17 -16 23 -16 15z"/>
<path d="M570 1052 c0 -6 14 -22 31 -34 19 -15 29 -29 25 -40 -2 -10 0 -16 5
-12 17 10 9 30 -26 64 -19 19 -35 29 -35 22z"/>
<path d="M590 940 c-13 -8 -13 -10 2 -10 9 0 20 5 23 10 8 13 -5 13 -25 0z"/>
<path d="M562 875 c-30 -62 -27 -71 4 -12 14 27 24 51 22 53 -3 2 -14 -17 -26
-41z"/>
<path d="M532 780 c0 -19 2 -27 5 -17 2 9 2 25 0 35 -3 9 -5 1 -5 -18z"/>
<path d="M540 664 c5 -21 7 -41 4 -45 -2 -4 1 -11 7 -15 14 -8 4 75 -11 90 -5
5 -5 -8 0 -30z"/>
<path d="M547 386 c3 -22 12 -51 19 -65 20 -37 17 -15 -6 49 -17 48 -19 50
-13 16z"/>
<path d="M584 245 c4 -27 14 -60 22 -72 18 -29 51 -47 59 -33 3 5 -3 10 -13
10 -26 0 -48 36 -56 89 -3 24 -9 47 -12 50 -4 3 -3 -16 0 -44z"/>
<path d="M688 143 c6 -2 18 -2 25 0 6 3 1 5 -13 5 -14 0 -19 -2 -12 -5z"/>
</g>
</svg>
